<svg width="1280" height="420" viewBox="0 0 1280 420" fill="none" xmlns="http://www.w3.org/2000/svg">
  <path d="M0 149C35.5556 212 142.222 294 213.333 294C284.444 294 355.556 168 426.667 132.956C497.778 98.4375 568.889 153.562 640 203.044C711.111 252 782.222 294 853.333 329.044C924.444 363.562 995.556 392.438 1066.67 405.956C1137.78 420 1208.89 420 1244.44 420H1280V0H1244.44C1208.89 0 1137.78 0 1066.67 0C995.556 0 924.444 0 853.333 0C782.222 0 711.111 0 640 0C568.889 0 497.778 0 426.667 0C355.556 0 284.444 0 213.333 0C142.222 0 71.1111 0 35.5556 0H0V149Z" fill="#120F05"/>
  <path fill-rule="evenodd" clip-rule="evenodd" d="M0 238.924H16C33 238.924 66 238.924 98 207.895C131 178.418 214 127 258.5 127C303 127 296 140.5 356 162.5C416 184.5 527.5 122.255 492 218.755C456.5 315.255 438.761 302.658 470 360C501.239 417.342 572.5 408.076 599.5 323.5C626.5 238.924 625.5 238.924 689 218.755C752.5 198.587 755 139.631 788 139.631C821 139.631 853 158.249 886 178.418C919 198.587 952 218.755 985 277.711C1017 338.218 1050 437.511 1083 417.342C1116 397.173 1167.5 287.02 1200.5 207.895C1232.5 128.771 1263 123.309 1280 114V0H1264C1247 0 1214 0 1182 0C1149 0 1116 0 1083 0C1050 0 1017 0 985 0C952 0 919 0 886 0C853 0 821 0 788 0C755 0 722 0 689 0C656 0 624 0 591 0C558 0 525 0 492 0C459 0 427 0 394 0C361 0 328 0 295 0C263 0 230 0 197 0C164 0 131 0 98 0C66 0 33 0 16 0H0V238.924Z" fill="#141D0E"/>
  </svg>
  