<svg width="1280" height="537" viewBox="0 0 1280 537" fill="none" xmlns="http://www.w3.org/2000/svg">
  <path d="M0 169.994C35.5556 250.544 142.222 375.9 213.333 375.9C284.444 375.9 355.556 214.8 426.667 169.994C497.778 125.859 568.889 196.341 640 259.606C711.111 322.2 782.222 375.9 853.333 420.706C924.444 464.841 995.556 501.759 1066.67 519.044C1137.78 537 1208.89 537 1244.44 537H1280V0H1244.44C1208.89 0 1137.78 0 1066.67 0C995.556 0 924.444 0 853.333 0C782.222 0 711.111 0 640 0C568.889 0 497.778 0 426.667 0C355.556 0 284.444 0 213.333 0C142.222 0 71.1111 0 35.5556 0H0V169.994Z" fill="#E1F0FA"/>
  </svg>
  